<svg width="22" height="22" viewBox="0 0 22 22" fill="none" xmlns="http://www.w3.org/2000/svg">
<path d="M2.75022 9.5C2.75022 5.77208 5.7723 2.75 9.50022 2.75C13.2281 2.75 16.2502 5.77208 16.2502 9.5C16.2502 13.2279 13.2281 16.25 9.50022 16.25C5.77401 16.2459 2.75436 13.2262 2.75022 9.5Z" fill="#637587"/>
<path fill-rule="evenodd" clip-rule="evenodd" d="M3.29534 3.29512C6.60703 -0.0165684 11.9378 -0.137719 15.3965 3.0201C18.7419 6.07445 19.1913 11.1513 16.5048 14.7371L20.8844 19.1158L20.8844 19.1158C21.3727 19.6041 21.3727 20.3959 20.8844 20.8842C20.3961 21.3725 19.6044 21.3725 19.116 20.8842L19.116 20.8841L14.7373 16.5046C11.1516 19.1911 6.07467 18.7416 3.02032 15.3963C-0.137497 11.9375 -0.0163472 6.60681 3.29534 3.29512ZM14.7222 3.7586C11.6583 0.961251 6.9361 1.06857 4.00245 4.00223C1.06879 6.93588 0.961472 11.6581 3.75882 14.722C6.55617 17.7859 11.2686 18.1077 14.4565 15.4524C14.6552 15.2869 14.9472 15.3002 15.1301 15.483L19.8232 20.1771C19.9209 20.2749 20.0795 20.2749 20.1773 20.1771C20.2751 20.0793 20.2751 19.9207 20.1773 19.8229L15.4833 15.1298C15.3004 14.947 15.2871 14.6549 15.4526 14.4562C18.1079 11.2684 17.7861 6.55595 14.7222 3.7586ZM9.50022 3.25C6.04856 3.25 3.2504 6.04804 3.25022 9.49967C3.25417 12.9501 6.05035 15.7462 9.50078 15.75C12.9523 15.7497 15.7502 12.9516 15.7502 9.5C15.7502 6.04822 12.952 3.25 9.50022 3.25ZM2.25022 9.5C2.25022 5.49594 5.49616 2.25 9.50022 2.25C13.5043 2.25 16.7502 5.49594 16.7502 9.5C16.7502 13.5041 13.5043 16.75 9.50022 16.75H9.49967C5.49775 16.7456 2.25466 13.5025 2.25022 9.50056L2.25022 9.5Z" fill="#637587"/>
</svg>
