<svg width="14" height="19" viewBox="0 0 14 19" fill="none" xmlns="http://www.w3.org/2000/svg">
<path fill-rule="evenodd" clip-rule="evenodd" d="M12.25 0H1.75C0.921573 0 0.25 0.671573 0.25 1.5V18C0.250136 18.2726 0.398147 18.5236 0.636587 18.6557C0.875028 18.7878 1.16636 18.7801 1.3975 18.6356L7 15.1341L12.6034 18.6356C12.8345 18.7796 13.1255 18.787 13.3636 18.655C13.6018 18.523 13.7497 18.2723 13.75 18V1.5C13.75 0.671573 13.0784 0 12.25 0V0ZM12.25 1.5V12.1472L7.39656 9.11438C7.15336 8.96237 6.84477 8.96237 6.60156 9.11438L1.75 12.1462V1.5H12.25ZM7.39656 13.6144C7.15336 13.4624 6.84477 13.4624 6.60156 13.6144L1.75 16.6472V13.9153L7 10.6341L12.25 13.9153V16.6472L7.39656 13.6144Z" fill="#637587"/>
</svg>
