<svg width="14" height="20" viewBox="0 0 14 20" fill="none" xmlns="http://www.w3.org/2000/svg">
<path d="M12.25 2.5V13.1472L7.39656 10.1144C7.15336 9.96237 6.84477 9.96237 6.60156 10.1144L1.75 13.1462V2.5H12.25Z" fill="#637587"/>
<path d="M7.39656 14.6144C7.15336 14.4624 6.84477 14.4624 6.60156 14.6144L1.75 17.6472V14.9153L7 11.6341L12.25 14.9153V17.6472L7.39656 14.6144Z" fill="#637587"/>
<path fill-rule="evenodd" clip-rule="evenodd" d="M0 2.5C0 1.5335 0.783502 0.75 1.75 0.75H12.25C13.2165 0.75 14 1.5335 14 2.5V19C13.9995 19.363 13.8024 19.6976 13.4849 19.8736C13.1673 20.0497 12.7794 20.0398 12.4712 19.8478L7.00001 16.4289L1.53 19.8476C1.22181 20.0402 0.833369 20.0505 0.51545 19.8744C0.197529 19.6983 0.00018087 19.3636 2.98023e-08 19.0001L0 2.5ZM1.75 1.25C1.05964 1.25 0.5 1.80964 0.5 2.5V19C0.50009 19.1816 0.598764 19.349 0.757725 19.437C0.916686 19.5251 1.1109 19.5199 1.265 19.4236L6.99999 15.8393L12.7356 19.4234C12.8897 19.5194 13.0837 19.5243 13.2424 19.4363C13.4012 19.3483 13.4998 19.1812 13.5 18.9997V2.5C13.5 1.80964 12.9404 1.25 12.25 1.25H1.75ZM1.5 2.25H12.5V13.5982L7.26408 10.3264C7.10195 10.2251 6.8962 10.225 6.73406 10.3264L1.5 13.5973V2.25ZM2 2.75V12.6952L6.46906 9.90238C6.46907 9.90237 6.46906 9.90238 6.46906 9.90238C6.79333 9.69972 7.20478 9.69971 7.52904 9.90236C7.52905 9.90237 7.52904 9.90236 7.52904 9.90236L12 12.6962V2.75H2ZM7 11.3393L12.5 14.7767V18.0982L7.26408 14.8264C7.10195 14.7251 6.89621 14.725 6.73408 14.8264C6.73408 14.8264 6.73409 14.8264 6.73408 14.8264L1.5 18.0983V14.7767L7 11.3393ZM2 15.0539V17.1961L6.46904 14.4024C6.79331 14.1997 7.20478 14.1997 7.52904 14.4024C7.52905 14.4024 7.52904 14.4024 7.52904 14.4024L12 17.1962V15.0539L7 11.9289L2 15.0539Z" fill="#637587"/>
</svg>
