<svg width="20" height="20" viewBox="0 0 20 20" fill="none" xmlns="http://www.w3.org/2000/svg">
<path fill-rule="evenodd" clip-rule="evenodd" d="M10.0001 5.5C7.51477 5.5 5.50005 7.51472 5.50005 10C5.50005 12.4853 7.51477 14.5 10.0001 14.5C12.4853 14.5 14.5001 12.4853 14.5001 10C14.4975 7.51579 12.4843 5.50258 10.0001 5.5ZM10.0001 13C8.3432 13 7.00005 11.6569 7.00005 10C7.00005 8.34315 8.3432 7 10.0001 7C11.6569 7 13.0001 8.34315 13.0001 10C13.0001 11.6569 11.6569 13 10.0001 13ZM18.2501 10.2025C18.2538 10.0675 18.2538 9.9325 18.2501 9.7975L19.6488 8.05C19.7975 7.86393 19.849 7.61827 19.7876 7.38813C19.5582 6.52619 19.2152 5.69861 18.7676 4.92719C18.6487 4.72249 18.4402 4.58592 18.2051 4.55875L15.9813 4.31125C15.8888 4.21375 15.7951 4.12 15.7001 4.03L15.4376 1.80063C15.4102 1.56531 15.2732 1.35677 15.0682 1.23813C14.2965 0.791264 13.4689 0.448596 12.6072 0.219064C12.3769 0.157837 12.1313 0.209688 11.9454 0.358751L10.2026 1.75C10.0676 1.75 9.93255 1.75 9.79755 1.75L8.05005 0.354064C7.86398 0.205327 7.61832 0.153828 7.38818 0.215313C6.52638 0.445026 5.69885 0.788016 4.92724 1.23531C4.72254 1.35417 4.58597 1.56268 4.5588 1.79781L4.3113 4.02531C4.2138 4.11844 4.12005 4.21219 4.03005 4.30656L1.80068 4.5625C1.56536 4.58988 1.35682 4.72682 1.23818 4.93188C0.791313 5.70359 0.448645 6.5311 0.219113 7.39281C0.157887 7.6231 0.209737 7.86878 0.358801 8.05469L1.75005 9.7975C1.75005 9.9325 1.75005 10.0675 1.75005 10.2025L0.354113 11.95C0.205377 12.1361 0.153878 12.3817 0.215363 12.6119C0.444666 13.4738 0.787678 14.3014 1.23536 15.0728C1.35422 15.2775 1.56273 15.4141 1.79786 15.4413L4.02161 15.6888C4.11474 15.7863 4.20849 15.88 4.30286 15.97L4.56255 18.1994C4.58993 18.4347 4.72687 18.6432 4.93193 18.7619C5.70364 19.2087 6.53115 19.5514 7.39286 19.7809C7.62315 19.8422 7.86883 19.7903 8.05474 19.6413L9.79755 18.25C9.93255 18.2538 10.0676 18.2538 10.2026 18.25L11.9501 19.6488C12.1361 19.7975 12.3818 19.849 12.6119 19.7875C13.4739 19.5582 14.3014 19.2152 15.0729 18.7675C15.2776 18.6486 15.4141 18.4401 15.4413 18.205L15.6888 15.9813C15.7863 15.8888 15.88 15.795 15.97 15.7L18.1994 15.4375C18.4347 15.4101 18.6433 15.2732 18.7619 15.0681C19.2088 14.2964 19.5515 13.4689 19.781 12.6072C19.8422 12.3769 19.7904 12.1312 19.6413 11.9453L18.2501 10.2025ZM16.7407 9.59313C16.7566 9.86414 16.7566 10.1359 16.7407 10.4069C16.7295 10.5924 16.7876 10.7755 16.9038 10.9206L18.2341 12.5828C18.0815 13.0679 17.886 13.5385 17.6501 13.9891L15.5313 14.2291C15.3468 14.2495 15.1764 14.3377 15.0532 14.4766C14.8727 14.6795 14.6805 14.8717 14.4776 15.0522C14.3387 15.1754 14.2505 15.3458 14.2301 15.5303L13.9947 17.6472C13.5443 17.8833 13.0737 18.0787 12.5885 18.2313L10.9254 16.9009C10.7923 16.7946 10.627 16.7367 10.4566 16.7369H10.4116C10.1406 16.7528 9.86888 16.7528 9.59786 16.7369C9.41232 16.7257 9.22923 16.7838 9.08411 16.9L7.41724 18.2313C6.93211 18.0786 6.46151 17.8831 6.01099 17.6472L5.77099 15.5313C5.75051 15.3467 5.66232 15.1764 5.52349 15.0531C5.32053 14.8727 5.12832 14.6805 4.94786 14.4775C4.82461 14.3387 4.65425 14.2505 4.46974 14.23L2.35286 13.9938C2.11679 13.5433 1.92133 13.0727 1.7688 12.5875L3.09911 10.9244C3.21527 10.7793 3.27341 10.5962 3.26224 10.4106C3.2463 10.1396 3.2463 9.86789 3.26224 9.59688C3.27341 9.41133 3.21527 9.22824 3.09911 9.08313L1.7688 7.41719C1.92145 6.93206 2.11691 6.46146 2.35286 6.01094L4.4688 5.77094C4.65331 5.75046 4.82368 5.66227 4.94693 5.52344C5.12739 5.32048 5.31959 5.12827 5.52255 4.94781C5.66193 4.82448 5.75048 4.65373 5.77099 4.46875L6.0063 2.35281C6.45677 2.11674 6.92738 1.92128 7.41255 1.76875L9.07568 3.09906C9.22079 3.21522 9.40388 3.27336 9.58943 3.26219C9.86044 3.24625 10.1322 3.24625 10.4032 3.26219C10.5887 3.27336 10.7718 3.21522 10.9169 3.09906L12.5829 1.76875C13.068 1.9214 13.5386 2.11686 13.9891 2.35281L14.2291 4.46875C14.2496 4.65326 14.3378 4.82363 14.4766 4.94688C14.6796 5.12734 14.8718 5.31954 15.0522 5.5225C15.1755 5.66133 15.3458 5.74952 15.5304 5.77L17.6472 6.00531C17.8833 6.45579 18.0788 6.9264 18.2313 7.41156L16.901 9.07469C16.7837 9.22103 16.7255 9.406 16.7379 9.59313H16.7407Z" fill="#CCCCCC"/>
<path fill-rule="evenodd" clip-rule="evenodd" d="M16.7407 9.59313C16.7566 9.86414 16.7566 10.1359 16.7407 10.4069C16.7295 10.5924 16.7876 10.7755 16.9038 10.9206L18.2341 12.5828C18.0815 13.0679 17.886 13.5385 17.6501 13.9891L15.5313 14.2291C15.3468 14.2495 15.1764 14.3377 15.0532 14.4766C14.8727 14.6795 14.6805 14.8717 14.4776 15.0522C14.3387 15.1754 14.2505 15.3458 14.2301 15.5303L13.9947 17.6472C13.5443 17.8833 13.0737 18.0787 12.5885 18.2313L10.9254 16.9009C10.7923 16.7946 10.627 16.7367 10.4566 16.7369H10.4116C10.1406 16.7528 9.86888 16.7528 9.59786 16.7369C9.41232 16.7257 9.22923 16.7838 9.08411 16.9L7.41724 18.2313C6.93211 18.0786 6.46151 17.8831 6.01099 17.6472L5.77099 15.5313C5.75051 15.3467 5.66232 15.1764 5.52349 15.0531C5.32053 14.8727 5.12832 14.6805 4.94786 14.4775C4.82461 14.3387 4.65425 14.2505 4.46974 14.23L2.35286 13.9938C2.11679 13.5433 1.92133 13.0727 1.7688 12.5875L3.09911 10.9244C3.21527 10.7793 3.27341 10.5962 3.26224 10.4106C3.2463 10.1396 3.2463 9.86789 3.26224 9.59688C3.27341 9.41133 3.21527 9.22824 3.09911 9.08313L1.7688 7.41719C1.92145 6.93206 2.11691 6.46146 2.35286 6.01094L4.4688 5.77094C4.65331 5.75046 4.82368 5.66227 4.94693 5.52344C5.12739 5.32048 5.31959 5.12827 5.52255 4.94781C5.66193 4.82448 5.75048 4.65373 5.77099 4.46875L6.0063 2.35281C6.45677 2.11674 6.92738 1.92128 7.41255 1.76875L9.07568 3.09906C9.22079 3.21522 9.40388 3.27336 9.58943 3.26219C9.86044 3.24625 10.1322 3.24625 10.4032 3.26219C10.5887 3.27336 10.7718 3.21522 10.9169 3.09906L12.5829 1.76875C13.068 1.9214 13.5386 2.11686 13.9891 2.35281L14.2291 4.46875C14.2496 4.65326 14.3378 4.82363 14.4766 4.94688C14.6796 5.12734 14.8718 5.31954 15.0522 5.5225C15.1755 5.66133 15.3458 5.74952 15.5304 5.77L17.6472 6.00531C17.8833 6.45579 18.0788 6.9264 18.2313 7.41156L16.901 9.07469C16.7837 9.22103 16.7255 9.406 16.7379 9.59313H16.7407ZM5.50005 10C5.50005 7.51472 7.51477 5.5 10.0001 5.5C12.4843 5.50258 14.4975 7.51579 14.5001 10C14.5001 12.4853 12.4853 14.5 10.0001 14.5C7.51477 14.5 5.50005 12.4853 5.50005 10Z" fill="#CCCCCC"/>
</svg>
