<svg width="20" height="20" viewBox="0 0 20 20" fill="none" xmlns="http://www.w3.org/2000/svg">
<path fill-rule="evenodd" clip-rule="evenodd" d="M10 5.5C7.51472 5.5 5.5 7.51472 5.5 10C5.5 12.4853 7.51472 14.5 10 14.5C12.4853 14.5 14.5 12.4853 14.5 10C14.4974 7.51579 12.4842 5.50258 10 5.5V5.5ZM10 13C8.34315 13 7 11.6569 7 10C7 8.34315 8.34315 7 10 7C11.6569 7 13 8.34315 13 10C13 11.6569 11.6569 13 10 13V13ZM18.25 10.2025C18.2537 10.0675 18.2537 9.9325 18.25 9.7975L19.6488 8.05C19.7975 7.86393 19.849 7.61827 19.7875 7.38813C19.5582 6.52619 19.2152 5.69861 18.7675 4.92719C18.6486 4.72249 18.4401 4.58592 18.205 4.55875L15.9813 4.31125C15.8888 4.21375 15.795 4.12 15.7 4.03L15.4375 1.80063C15.4101 1.56531 15.2732 1.35677 15.0681 1.23813C14.2964 0.791263 13.4689 0.448595 12.6072 0.219063C12.3769 0.157836 12.1312 0.209687 11.9453 0.35875L10.2025 1.75C10.0675 1.75 9.9325 1.75 9.7975 1.75L8.05 0.354063C7.86393 0.205326 7.61827 0.153827 7.38813 0.215312C6.52633 0.445025 5.6988 0.788016 4.92719 1.23531C4.72249 1.35417 4.58592 1.56268 4.55875 1.79781L4.31125 4.02531C4.21375 4.11844 4.12 4.21219 4.03 4.30656L1.80063 4.5625C1.56531 4.58988 1.35677 4.72682 1.23813 4.93188C0.791263 5.70359 0.448595 6.5311 0.219063 7.39281C0.157836 7.6231 0.209687 7.86878 0.35875 8.05469L1.75 9.7975C1.75 9.9325 1.75 10.0675 1.75 10.2025L0.354063 11.95C0.205326 12.1361 0.153827 12.3817 0.215312 12.6119C0.444615 13.4738 0.787627 14.3014 1.23531 15.0728C1.35417 15.2775 1.56268 15.4141 1.79781 15.4412L4.02156 15.6887C4.11469 15.7862 4.20844 15.88 4.30281 15.97L4.5625 18.1994C4.58988 18.4347 4.72682 18.6432 4.93188 18.7619C5.70359 19.2087 6.5311 19.5514 7.39281 19.7809C7.6231 19.8422 7.86878 19.7903 8.05469 19.6413L9.7975 18.25C9.9325 18.2537 10.0675 18.2537 10.2025 18.25L11.95 19.6488C12.1361 19.7975 12.3817 19.849 12.6119 19.7875C13.4738 19.5582 14.3014 19.2152 15.0728 18.7675C15.2775 18.6486 15.4141 18.4401 15.4412 18.205L15.6887 15.9813C15.7862 15.8888 15.88 15.795 15.97 15.7L18.1994 15.4375C18.4347 15.4101 18.6432 15.2732 18.7619 15.0681C19.2087 14.2964 19.5514 13.4689 19.7809 12.6072C19.8422 12.3769 19.7903 12.1312 19.6413 11.9453L18.25 10.2025ZM16.7406 9.59313C16.7566 9.86414 16.7566 10.1359 16.7406 10.4069C16.7295 10.5924 16.7876 10.7755 16.9037 10.9206L18.2341 12.5828C18.0814 13.0679 17.886 13.5385 17.65 13.9891L15.5312 14.2291C15.3467 14.2495 15.1764 14.3377 15.0531 14.4766C14.8727 14.6795 14.6805 14.8717 14.4775 15.0522C14.3387 15.1754 14.2505 15.3458 14.23 15.5303L13.9947 17.6472C13.5442 17.8833 13.0736 18.0787 12.5884 18.2313L10.9253 16.9009C10.7922 16.7946 10.6269 16.7367 10.4566 16.7369H10.4116C10.1405 16.7528 9.86883 16.7528 9.59781 16.7369C9.41226 16.7257 9.22918 16.7838 9.08406 16.9L7.41719 18.2313C6.93206 18.0786 6.46146 17.8831 6.01094 17.6472L5.77094 15.5312C5.75046 15.3467 5.66227 15.1764 5.52344 15.0531C5.32048 14.8727 5.12827 14.6805 4.94781 14.4775C4.82456 14.3387 4.6542 14.2505 4.46969 14.23L2.35281 13.9937C2.11674 13.5433 1.92128 13.0727 1.76875 12.5875L3.09906 10.9244C3.21522 10.7793 3.27336 10.5962 3.26219 10.4106C3.24625 10.1396 3.24625 9.86789 3.26219 9.59688C3.27336 9.41133 3.21522 9.22824 3.09906 9.08313L1.76875 7.41719C1.9214 6.93206 2.11685 6.46146 2.35281 6.01094L4.46875 5.77094C4.65326 5.75046 4.82362 5.66227 4.94688 5.52344C5.12733 5.32048 5.31954 5.12827 5.5225 4.94781C5.66188 4.82448 5.75043 4.65373 5.77094 4.46875L6.00625 2.35281C6.45672 2.11674 6.92733 1.92128 7.4125 1.76875L9.07563 3.09906C9.22074 3.21522 9.40383 3.27336 9.58937 3.26219C9.86039 3.24625 10.1321 3.24625 10.4031 3.26219C10.5887 3.27336 10.7718 3.21522 10.9169 3.09906L12.5828 1.76875C13.0679 1.9214 13.5385 2.11685 13.9891 2.35281L14.2291 4.46875C14.2495 4.65326 14.3377 4.82362 14.4766 4.94688C14.6795 5.12733 14.8717 5.31954 15.0522 5.5225C15.1754 5.66133 15.3458 5.74952 15.5303 5.77L17.6472 6.00531C17.8833 6.45578 18.0787 6.9264 18.2313 7.41156L16.9009 9.07469C16.7837 9.22103 16.7255 9.406 16.7378 9.59313H16.7406Z" fill="#CCCCCC"/>
</svg>
